<svg xmlns="http://www.w3.org/2000/svg" viewBox="0 0 976 700" width="976" height="700" font-family="system-ui, &quot;Microsoft JhengHei&quot;, &quot;Noto Sans TC&quot;, sans-serif"><rect width="976" height="700" fill="#0d1117"/>
<text x="24" y="44" font-size="19" font-weight="600" fill="#e6edf3">GPU0 / GPU1 顯存分配與輪替(各 24 GB)</text>
<text x="256" y="82" font-size="13.5" font-weight="600" fill="#e6edf3">GPU0 · 桌面卡 · 190 W</text>
<rect x="256" y="90" width="336" height="14" rx="3" fill="#151b23" stroke="#3d444d"/>
<line x1="256.0" y1="104" x2="256.0" y2="109" stroke="#9198a1"/>
<text x="256.0" y="122" text-anchor="middle" font-size="11" fill="#9198a1">0</text>
<line x1="340.0" y1="104" x2="340.0" y2="109" stroke="#9198a1"/>
<text x="340.0" y="122" text-anchor="middle" font-size="11" fill="#9198a1">6</text>
<line x1="424.0" y1="104" x2="424.0" y2="109" stroke="#9198a1"/>
<text x="424.0" y="122" text-anchor="middle" font-size="11" fill="#9198a1">12</text>
<line x1="508.0" y1="104" x2="508.0" y2="109" stroke="#9198a1"/>
<text x="508.0" y="122" text-anchor="middle" font-size="11" fill="#9198a1">18</text>
<line x1="592.0" y1="104" x2="592.0" y2="109" stroke="#9198a1"/>
<text x="592.0" y="122" text-anchor="middle" font-size="11" fill="#9198a1">24</text>
<text x="616" y="82" font-size="13.5" font-weight="600" fill="#e6edf3">GPU1 · 運算卡 · 420 W</text>
<rect x="616" y="90" width="336" height="14" rx="3" fill="#151b23" stroke="#3d444d"/>
<line x1="616.0" y1="104" x2="616.0" y2="109" stroke="#9198a1"/>
<text x="616.0" y="122" text-anchor="middle" font-size="11" fill="#9198a1">0</text>
<line x1="700.0" y1="104" x2="700.0" y2="109" stroke="#9198a1"/>
<text x="700.0" y="122" text-anchor="middle" font-size="11" fill="#9198a1">6</text>
<line x1="784.0" y1="104" x2="784.0" y2="109" stroke="#9198a1"/>
<text x="784.0" y="122" text-anchor="middle" font-size="11" fill="#9198a1">12</text>
<line x1="868.0" y1="104" x2="868.0" y2="109" stroke="#9198a1"/>
<text x="868.0" y="122" text-anchor="middle" font-size="11" fill="#9198a1">18</text>
<line x1="952.0" y1="104" x2="952.0" y2="109" stroke="#9198a1"/>
<text x="952.0" y="122" text-anchor="middle" font-size="11" fill="#9198a1">24</text>
<text x="24" y="101" font-size="12.5" fill="#9198a1">顯存(GB)</text>
<rect x="24" y="138" width="14" height="14" rx="3" fill="#6e7681"/>
<text x="44" y="150" font-size="12.5" fill="#e6edf3">桌面</text>
<rect x="91.0" y="138" width="14" height="14" rx="3" fill="#4493f8"/>
<text x="111.0" y="150" font-size="12.5" fill="#e6edf3">自動化腦</text>
<rect x="183.0" y="138" width="14" height="14" rx="3" fill="#ab7df8"/>
<text x="203.0" y="150" font-size="12.5" fill="#e6edf3">對話腦</text>
<rect x="262.5" y="138" width="14" height="14" rx="3" fill="#d29922"/>
<text x="282.5" y="150" font-size="12.5" fill="#e6edf3">生圖 ComfyUI</text>
<rect x="387.5" y="138" width="14" height="14" rx="3" fill="#3fb950"/>
<text x="407.5" y="150" font-size="12.5" fill="#e6edf3">OCR</text>
<rect x="451.25" y="138" width="14" height="14" rx="3" fill="#f85149"/>
<text x="471.25" y="150" font-size="12.5" fill="#e6edf3">遊戲</text>
<rect x="518.2" y="138" width="14" height="14" rx="3" fill="#151b23" stroke="#3d444d"/>
<text x="538.2" y="150" font-size="12.5" fill="#e6edf3">空</text>
<line x1="24" y1="172" x2="952" y2="172" stroke="#3d444d"/>
<text x="24" y="201" font-size="14" font-weight="600" fill="#e6edf3">平常</text>
<text x="24" y="219" font-size="11.5" fill="#9198a1">預設</text>
<rect x="256" y="190" width="336" height="34" rx="4" fill="#151b23" stroke="#3d444d"/>
<rect x="256.0" y="190" width="49.0" height="34" fill="#6e7681"/>
<text x="280.5" y="211.5" text-anchor="middle" font-size="12.5" fill="#0d1117">桌面</text>
<rect x="616" y="190" width="336" height="34" rx="4" fill="#151b23" stroke="#3d444d"/>
<rect x="616.0" y="190" width="309.1" height="34" fill="#4493f8"/>
<text x="770.6" y="211.5" text-anchor="middle" font-size="12.5" fill="#0d1117">自動化腦 92%</text>
<text x="24" y="271" font-size="14" font-weight="600" fill="#e6edf3">與專家對話</text>
<text x="24" y="289" font-size="11.5" fill="#9198a1">按「開對話腦」</text>
<text x="24" y="305" font-size="11.5" fill="#9198a1">30 分鐘沒請求就換回</text>
<rect x="256" y="260" width="336" height="34" rx="4" fill="#151b23" stroke="#3d444d"/>
<rect x="256.0" y="260" width="49.0" height="34" fill="#6e7681"/>
<text x="280.5" y="281.5" text-anchor="middle" font-size="12.5" fill="#0d1117">桌面</text>
<rect x="616" y="260" width="336" height="34" rx="4" fill="#151b23" stroke="#3d444d"/>
<rect x="616.0" y="260" width="309.1" height="34" fill="#ab7df8"/>
<text x="770.6" y="281.5" text-anchor="middle" font-size="12.5" fill="#0d1117">對話腦 92%</text>
<text x="24" y="341" font-size="14" font-weight="600" fill="#e6edf3">對話中要生圖</text>
<text x="24" y="359" font-size="11.5" fill="#9198a1">ComfyUI 改到 GPU0</text>
<text x="24" y="375" font-size="11.5" fill="#9198a1">佇列空 30 分鐘收班</text>
<rect x="256" y="330" width="336" height="34" rx="4" fill="#151b23" stroke="#3d444d"/>
<rect x="256.0" y="330" width="98.0" height="34" fill="#6e7681"/>
<text x="305.0" y="351.5" text-anchor="middle" font-size="12.5" fill="#0d1117">桌面保留 7 GB</text>
<rect x="354.0" y="330" width="238.0" height="34" fill="#d29922" fill-opacity="0.22" stroke="#d29922" stroke-width="1.5" stroke-dasharray="5 3"/>
<text x="473.0" y="351.5" text-anchor="middle" font-size="12.5" fill="#e6edf3">生圖 ≤ 17 GB</text>
<rect x="616" y="330" width="336" height="34" rx="4" fill="#151b23" stroke="#3d444d"/>
<rect x="616.0" y="330" width="309.1" height="34" fill="#ab7df8"/>
<text x="770.6" y="351.5" text-anchor="middle" font-size="12.5" fill="#0d1117">對話腦 92%</text>
<text x="24" y="411" font-size="14" font-weight="600" fill="#e6edf3">單純生圖</text>
<text x="24" y="429" font-size="11.5" fill="#9198a1">自動化腦讓位</text>
<text x="24" y="445" font-size="11.5" fill="#9198a1">佇列空 30 分鐘收班</text>
<rect x="256" y="400" width="336" height="34" rx="4" fill="#151b23" stroke="#3d444d"/>
<rect x="256.0" y="400" width="49.0" height="34" fill="#6e7681"/>
<text x="280.5" y="421.5" text-anchor="middle" font-size="12.5" fill="#0d1117">桌面</text>
<rect x="616" y="400" width="336" height="34" rx="4" fill="#151b23" stroke="#3d444d"/>
<rect x="616.0" y="400" width="336.0" height="34" fill="#d29922" fill-opacity="0.22" stroke="#d29922" stroke-width="1.5" stroke-dasharray="5 3"/>
<text x="784.0" y="421.5" text-anchor="middle" font-size="12.5" fill="#e6edf3">ComfyUI 獨佔(依模型)</text>
<text x="24" y="481" font-size="14" font-weight="600" fill="#e6edf3">白天新文獻</text>
<text x="24" y="499" font-size="11.5" fill="#9198a1">每 15 分檢查</text>
<text x="24" y="515" font-size="11.5" fill="#9198a1">跑完自動復航</text>
<rect x="256" y="470" width="336" height="34" rx="4" fill="#151b23" stroke="#3d444d"/>
<rect x="256.0" y="470" width="49.0" height="34" fill="#6e7681"/>
<text x="280.5" y="491.5" text-anchor="middle" font-size="12.5" fill="#0d1117">桌面</text>
<rect x="616" y="470" width="336" height="34" rx="4" fill="#151b23" stroke="#3d444d"/>
<rect x="616.0" y="470" width="285.6" height="34" fill="#3fb950"/>
<text x="758.8" y="491.5" text-anchor="middle" font-size="12.5" fill="#0d1117">OCR 85%</text>
<text x="24" y="551" font-size="14" font-weight="600" fill="#e6edf3">夜班 OCR</text>
<text x="24" y="569" font-size="11.5" fill="#9198a1">02:00 且閒置 ≥ 30 分</text>
<text x="24" y="585" font-size="11.5" fill="#9198a1">一碰鍵盤滑鼠就讓出 GPU0</text>
<rect x="256" y="540" width="336" height="34" rx="4" fill="#151b23" stroke="#3d444d"/>
<rect x="256.0" y="540" width="49.0" height="34" fill="#6e7681"/>
<text x="280.5" y="561.5" text-anchor="middle" font-size="12.5" fill="#0d1117">桌面</text>
<rect x="305.0" y="540" width="168.0" height="34" fill="#3fb950"/>
<text x="389.0" y="561.5" text-anchor="middle" font-size="12.5" fill="#0d1117">OCR 50%</text>
<rect x="616" y="540" width="336" height="34" rx="4" fill="#151b23" stroke="#3d444d"/>
<rect x="616.0" y="540" width="285.6" height="34" fill="#3fb950"/>
<text x="758.8" y="561.5" text-anchor="middle" font-size="12.5" fill="#0d1117">OCR 85%</text>
<text x="24" y="621" font-size="14" font-weight="600" fill="#e6edf3">遊戲護欄開著</text>
<text x="24" y="639" font-size="11.5" fill="#9198a1">方舟一鍵</text>
<text x="24" y="655" font-size="11.5" fill="#9198a1">GPU0 不准開新工作</text>
<rect x="256" y="610" width="336" height="34" rx="4" fill="#151b23" stroke="#3d444d"/>
<rect x="256.0" y="610" width="336.0" height="34" fill="#f85149" fill-opacity="0.22" stroke="#f85149" stroke-width="1.5" stroke-dasharray="5 3"/>
<text x="424.0" y="631.5" text-anchor="middle" font-size="12.5" fill="#e6edf3">遊戲(新工作一律擋)</text>
<rect x="616" y="610" width="336" height="34" rx="4" fill="#151b23" stroke="#3d444d"/>
<rect x="616.0" y="610" width="309.1" height="34" fill="#4493f8"/>
<text x="770.6" y="631.5" text-anchor="middle" font-size="12.5" fill="#0d1117">自動化腦 92%</text>
<text x="24" y="682" font-size="11.5" fill="#9198a1">色塊比例依設定值:vLLM 腦圈 92%、OCR 在 GPU1 圈 85%、在 GPU0 圈 50%;桌面約 3.5 GB 為實測;虛線=上限或依模型而定。</text>
</svg>
